<?xml version="1.0" encoding="UTF-8" standalone="no"?>
<svg
   xmlns:dc="http://purl.org/dc/elements/1.1/"
   xmlns:cc="http://creativecommons.org/ns#"
   xmlns:rdf="http://www.w3.org/1999/02/22-rdf-syntax-ns#"
   xmlns:svg="http://www.w3.org/2000/svg"
   xmlns="http://www.w3.org/2000/svg"
   xmlns:sodipodi="http://sodipodi.sourceforge.net/DTD/sodipodi-0.dtd"
   xmlns:inkscape="http://www.inkscape.org/namespaces/inkscape"
   x="0px"
   y="0px"
   viewBox="0 0 49.999999 49.999999"
   xml:space="preserve"
   version="1.1"
   id="svg42"
   sodipodi:docname="logo.svg"
   width="50"
   height="50"
   inkscape:version="0.92.2 (5c3e80d, 2017-08-06)"><metadata
     id="metadata48"><rdf:RDF><cc:Work
         rdf:about=""><dc:format>image/svg+xml</dc:format><dc:type
           rdf:resource="http://purl.org/dc/dcmitype/StillImage" /><dc:title></dc:title></cc:Work></rdf:RDF></metadata><defs
     id="defs46" /><sodipodi:namedview
     pagecolor="#ffffff"
     bordercolor="#666666"
     borderopacity="1"
     objecttolerance="10"
     gridtolerance="10"
     guidetolerance="10"
     inkscape:pageopacity="0"
     inkscape:pageshadow="2"
     inkscape:window-width="2560"
     inkscape:window-height="1361"
     id="namedview44"
     showgrid="false"
     fit-margin-top="0"
     fit-margin-left="0"
     fit-margin-right="0"
     fit-margin-bottom="0"
     inkscape:zoom="12.243186"
     inkscape:cx="20.860905"
     inkscape:cy="25.299999"
     inkscape:window-x="2551"
     inkscape:window-y="-9"
     inkscape:window-maximized="1"
     inkscape:current-layer="svg42" /><path
     d="M 23.196891,30.140938 H 10.630735 c -0.362485,0 -0.6645563,0.313952 -0.6645563,0.753484 0,0.376742 0.3020713,0.690694 0.6645563,0.690694 h 12.566156 c 0.362485,0 0.72497,-0.313952 0.72497,-0.690694 0,-0.439532 -0.302071,-0.753484 -0.72497,-0.753484 0,0 0,0 0,0 z"
     id="path32"
     inkscape:connector-curvature="0"
     style="fill:#009688;stroke-width:0.61590803" /><path
     d="M 23.196891,33.908357 H 10.630735 c -0.362485,0 -0.6645563,0.313952 -0.6645563,0.753484 0,0.376742 0.3020713,0.690693 0.6645563,0.690693 h 12.566156 c 0.362485,0 0.664556,-0.313951 0.664556,-0.753483 0,-0.376742 -0.302071,-0.690694 -0.664556,-0.690694 z"
     id="path34"
     inkscape:connector-curvature="0"
     style="fill:#009688;stroke-width:0.61590803" /><path
     d="M 23.196891,37.612986 H 10.630735 c -0.362485,0 -0.6645563,0.313951 -0.6645563,0.753483 0,0.376742 0.3020713,0.690694 0.6645563,0.690694 h 12.566156 c 0.362485,0 0.664556,-0.313952 0.664556,-0.753484 0,-0.376742 -0.302071,-0.690693 -0.664556,-0.690693 z"
     id="path36"
     inkscape:connector-curvature="0"
     style="fill:#009688;stroke-width:0.61590803" /><path
     d="m 37.152573,40.50134 h -0.845799 v -18.523142 0 c 0,0 0,0 0,0 0,0 0.06041,0 0.06041,0.06279 0,0 0,0 0,0 0,0 0,0 0.06041,0 0,0 0,0 0,0 0,0 0.06041,0 0.06041,0 0,0 0,0 0,0 0,0 0.06041,0 0.06041,0 0,0 0,0 0,0 0,0 0.06041,0 0.06041,0 v 0 c 0,0 0.06041,0 0.06041,0 0,0 0.06041,0 0.06041,0 v 0 c 0,0 0.06041,0 0.06041,0 0,0 0,0 0,0 h 0.06041 c 0,0 0,0 0,0 0,0 0.06041,0 0.06041,0 0,0 0,0 0,0 0,0 0.06041,0 0.06041,0 0,0 0,0 0,0 0,0 0.06041,0 0.06041,-0.06279 v 0 l 0.06041,-0.06279 v 0 c 0.06041,0 0.06041,-0.06279 0.120829,-0.125581 0,0 0,0 0,0 0,0 0,-0.06279 0.06041,-0.06279 v 0 0 c 0,0 0,-0.06279 0.06041,-0.06279 0,0 0,0 0,0 0,0 0,-0.06279 0,-0.06279 0,0 0,0 0,-0.06279 v -0.06279 c 0,0 0,0 0,-0.06279 0,0 0,0 0,-0.06279 0,0 0,-0.06279 0,-0.06279 0,0 0,0 0,0 0,0 0,-0.06279 0,-0.06279 v -3.139518 c 0,0 0,-0.06279 0,-0.06279 0,0 0,0 0,-0.06279 0,0 0,0 0,-0.06279 0,0 0,-0.06279 0,-0.06279 0,0 0,0 0,0 0,0 0,-0.06279 0,-0.06279 0,0 0,0 0,0 0,0 0,0 0,-0.06279 0,0 0,0 0,-0.06279 0,0 0,0 0,-0.06279 0,0 0,0 0,-0.06279 0,0 0,0 0,0 0,0 0,0 0,-0.06279 0,0 0,0 0,0 0,0 0,0 -0.06041,-0.06279 0,0 0,0 0,0 0,0 0,0 -0.06041,0 0,0 -0.06041,-0.06279 -0.06041,-0.06279 L 21.565707,6.4062007 v 0 c -0.845799,-0.6279031 -1.933255,-0.6279031 -2.839468,0 v 0 L 2.7164733,17.645666 c 0,0 -0.060414,0.06279 -0.060414,0.06279 v 0 c 0,0 0,0 0,0 0,0 0,0 -0.060414,0.06279 v 0 c 0,0 0,0 0,0.06279 0,0 0,0 0,0 0,0 0,0 0,0.06279 0,0 0,0 0,0.06279 0,0 0,0 0,0.06279 0,0 0,0 0,0.06279 0,0 0,0 0,0 0,0 0,0.06279 0,0.06279 0,0 0,0 0,0 0,0 0,0.06279 0,0.06279 0,0 0,0 0,0.06279 0,0 0,0 0,0.06279 0,0 0,0.06279 0,0.06279 v 3.139516 c 0,0 0,0.06279 0,0.06279 0,0 0,0 0,0 0,0 0,0.06279 0,0.06279 0,0 0,0 0,0.06279 0,0 0,0 0,0.06279 v 0.06279 c 0,0 0,0 0,0.06279 0,0 0,0.06279 0,0.06279 0,0 0,0 0,0 0,0 0.060414,0.06279 0.060414,0.06279 0,0 0,0.06279 0.060414,0.06279 0,0 0,0 0,0 0.060414,0.06279 0.060414,0.06279 0.1208284,0.125581 v 0 l 0.060414,0.06279 v 0 c 0,0 0.060414,0 0.060414,0.06279 0,0 0,0 0,0 0,0 0.060414,0 0.060414,0 0,0 0,0 0,0 0,0 0.060414,0 0.060414,0 0,0 0,0 0,0 h 0.060414 c 0,0 0,0 0,0 0,0 0.060414,0 0.060414,0 v 0 c 0,0 0.060414,0 0.060414,0 0,0 0.060414,0 0.060414,0 v 0 c 0,0 0.060414,0 0.060414,0 0,0 0,0 0,0 0,0 0.060414,0 0.060414,0 0,0 0,0 0,0 0,0 0.060414,0 0.060414,0 0,0 0,0 0,0 0,0 0,0 0.060414,0 0,0 0,0 0,0 0,0 0.060414,0 0.060414,-0.06279 0,0 0,0 0,0 L 3.9247575,22.040988 V 40.626921 H 3.0789586 c -0.4833137,0 -0.845799,0.439532 -0.7853848,0.879064 0,0.439532 0.3624853,0.816274 0.7853848,0.816274 H 37.092159 c 0.483314,0 0.845799,-0.376742 0.845799,-0.879064 0,-0.502323 -0.302071,-0.941855 -0.785385,-0.941855 z M 20.59908,7.8503779 35.883875,18.524731 v 1.067435 L 20.538665,8.9178132 v 0 c 0,0 -0.06041,0 -0.06041,-0.06279 0,0 0,0 0,0 0,0 -0.06041,0 -0.06041,0 0,0 0,0 0,0 0,0 0,0 0,0 -0.06041,-0.06279 -0.181243,-0.06279 -0.302071,-0.06279 h -0.06041 c 0,0 -0.06041,0 -0.06041,0 v 0 c -0.06041,0 -0.181242,0 -0.241656,0.06279 0,0 0,0 0,0 0,0 0,0 0,0 0,0 -0.06041,0 -0.06041,0 0,0 0,0 0,0 0,0 -0.06041,0 -0.06041,0.06279 v 0 L 4.0455859,19.843327 V 18.775892 L 19.692866,7.8503779 v 0 c 0.241657,-0.1883709 0.664557,-0.1883709 0.906214,0 z M 5.6767696,20.785182 20.17618,10.675942 34.675591,20.785182 V 40.50134 h -1.631184 v -3.641838 c 0,-0.376742 -0.302071,-0.690694 -0.664556,-0.690694 h -3.44361 c -0.362486,0 -0.664557,0.313952 -0.664557,0.690694 V 40.50134 H 26.640501 V 29.450245 c 0,-1.444177 -1.14787,-2.574403 -2.537397,-2.574403 H 9.784936 c -1.3895268,0 -2.5373969,1.193016 -2.5373969,2.574403 V 40.50134 H 5.6767696 Z M 31.65488,40.50134 H 29.600797 V 37.550195 H 31.65488 Z M 8.9391371,29.450245 c 0,-0.502323 0.3624853,-0.879064 0.8457989,-0.879064 h 14.318168 c 0.483313,0 0.845799,0.376741 0.845799,0.879064 0,0 0,0 0,0 V 40.50134 H 8.9391371 Z"
     id="path38"
     inkscape:connector-curvature="0"
     style="fill:#435a6b;stroke-width:0.61590803" /></svg>